<?xml version="1.0" ?><svg style="enable-background:new 0 0 48 48;" version="1.1" viewBox="0 0 48 48" xml:space="preserve" xmlns="http://www.w3.org/2000/svg" xmlns:xlink="http://www.w3.org/1999/xlink"><style type="text/css">
	.st0{display:none;}
	.st1{fill:none;stroke:#303030;stroke-width:0.7;stroke-linecap:round;stroke-linejoin:round;stroke-miterlimit:10;}
	.st2{fill:#303030;}
</style><g class="st0" id="Padding__x26__Artboard"/><g id="Icons"><g><g><path class="st1" d="M30.51314,39.05259H17.48686c-1.16856,0-2.11587-0.94731-2.11587-2.11587V11.06329     c0-1.16856,0.94731-2.11587,2.11587-2.11587h13.02628c1.16856,0,2.11587,0.94731,2.11587,2.11587v25.87343     C32.62901,38.10528,31.6817,39.05259,30.51314,39.05259z"/><rect class="st1" height="23.42005" width="17.25802" x="15.37099" y="12.75483"/></g><ellipse class="st2" cx="24.08728" cy="37.53078" rx="0.64537" ry="0.64537" transform="matrix(0.7448 -0.66728 0.66728 0.7448 -18.89671 25.65082)"/><g><ellipse class="st2" cx="26.97011" cy="10.78988" rx="0.36534" ry="0.32871"/><line class="st1" x1="20.83911" x2="24.56213" y1="10.78988" y2="10.78988"/></g><line class="st1" x1="20.56837" x2="17.69829" y1="14.17693" y2="16.75922"/><line class="st1" x1="21.09852" x2="19.30996" y1="15.46808" y2="17.0773"/><g><circle class="st1" cx="24" cy="24.46486" r="2.05996"/><circle class="st2" cx="26.72131" cy="21.83239" r="0.29604"/><g><path class="st1" d="M26.04852,28.7986h-4.09723c-1.25989,0-2.28503-1.02514-2.28503-2.28522v-4.09705      c0-1.26007,1.02514-2.28522,2.28503-2.28522h4.09723c1.26007,0,2.28522,1.02514,2.28522,2.28522v4.09705      C28.33374,27.77346,27.3086,28.7986,26.04852,28.7986z"/></g></g></g></g></svg>